<?xml version="1.0" standalone="no"?>
<!DOCTYPE svg PUBLIC "-//W3C//DTD SVG 20010904//EN"
 "http://www.w3.org/TR/2001/REC-SVG-20010904/DTD/svg10.dtd">
<svg version="1.0" xmlns="http://www.w3.org/2000/svg"
 width="1280.000000pt" height="834.000000pt" viewBox="0 -200 1280.000000 834.000000"
 preserveAspectRatio="xMidYMid meet">
<metadata>
Created by potrace 1.15, written by Peter Selinger 2001-2017
</metadata>
<g transform="translate(0.000000,834.000000) scale(0.100000,-0.100000)"
fill="#E1E1E1" stroke="none">
<path d="M5587 8333 c-11 -10 -8 -71 3 -78 16 -10 40 14 40 39 0 32 -27 56
-43 39z"/>
<path d="M8623 8275 c-48 -41 -90 -51 -85 -20 3 17 0 15 -18 -7 -26 -34 -50
-36 -51 -5 -1 20 -1 21 -7 2 -9 -26 -43 -65 -58 -65 -7 0 -22 -16 -33 -36 -15
-25 -27 -35 -39 -32 -13 4 -18 0 -18 -15 1 -12 -8 -26 -20 -32 -11 -5 -19 -16
-16 -23 2 -6 -10 -35 -27 -62 -17 -28 -28 -50 -25 -50 3 0 -4 -13 -16 -30 -12
-18 -16 -30 -10 -30 8 0 9 -7 5 -17 -4 -10 -8 -53 -9 -96 -1 -56 2 -77 12 -77
25 0 23 -30 -3 -67 -27 -38 -27 -38 -2 -10 35 37 50 35 42 -5 -4 -18 -12 -38
-17 -45 -6 -7 -5 -14 2 -18 5 -3 10 -13 10 -21 0 -16 30 -52 30 -37 0 4 4 2 9
-6 11 -18 67 8 106 49 16 17 34 30 41 30 6 0 17 7 24 15 7 9 19 14 25 11 7 -2
17 6 24 20 6 13 19 25 28 25 41 3 73 16 89 38 6 8 18 12 28 8 10 -4 16 -1 16
7 0 8 7 16 15 20 8 3 15 14 15 25 0 25 41 54 63 45 12 -4 14 -1 10 15 -3 14 0
23 11 27 13 5 14 9 5 20 -13 16 4 44 26 44 8 0 10 9 7 25 -2 15 0 25 7 25 9 0
9 5 1 20 -8 15 -6 24 10 40 15 15 17 20 5 20 -8 0 -15 7 -15 15 0 8 5 15 11
15 8 0 8 4 1 13 -9 10 -7 19 4 35 14 20 14 22 0 22 -26 0 -18 23 16 53 l33 27
-32 -17 c-30 -17 -32 -17 -52 1 -23 21 -27 56 -9 74 19 19 1 26 -32 12 -38
-16 -64 1 -57 37 7 35 -32 30 -80 -12z"/>
<path d="M5598 8069 c-22 -12 -24 -67 -5 -93 17 -23 53 -14 62 15 8 24 -13 89
-28 89 -7 0 -20 -5 -29 -11z"/>
<path d="M5905 7570 c-4 -6 -15 -8 -26 -5 -14 5 -19 2 -19 -13 0 -10 -9 -27
-20 -37 -40 -36 -4 -131 56 -149 16 -5 41 -15 56 -22 29 -16 58 -9 58 12 0 15
17 47 39 75 20 25 21 60 2 79 -27 28 -90 62 -101 55 -6 -4 -17 -2 -25 5 -9 8
-15 8 -20 0z"/>
<path d="M6850 7473 c-14 -3 -63 -17 -110 -33 -47 -16 -105 -33 -130 -39 -43
-10 -42 -10 25 -6 l70 4 -47 -19 c-26 -11 -67 -31 -90 -46 -23 -15 -80 -44
-127 -66 -90 -42 -141 -52 -415 -83 -71 -8 -215 -29 -320 -46 -118 -19 -205
-29 -231 -25 -22 3 -67 8 -100 10 -33 2 -129 10 -213 17 l-153 13 -37 48 c-39
52 -54 50 -27 -2 9 -18 15 -34 12 -36 -2 -3 -158 9 -345 26 -188 16 -353 30
-368 30 -19 0 -25 4 -20 15 9 23 -24 32 -40 11 -12 -17 -22 -17 -206 -1 -108
10 -221 14 -257 11 -121 -13 -359 -102 -510 -192 -68 -40 -78 -49 -64 -59 14
-10 12 -15 -13 -39 l-29 -27 37 16 c49 20 64 20 48 0 -17 -21 -1 -19 55 5 57
24 58 24 44 2 -24 -38 26 -122 72 -122 10 0 21 -4 24 -10 13 -21 34 -8 60 36
34 58 27 99 -22 123 -18 9 -33 19 -33 22 0 13 73 21 80 9 5 -9 15 -8 37 3 16
9 85 32 152 52 122 36 122 36 139 15 9 -11 33 -22 52 -24 42 -4 94 19 86 40
-6 16 25 18 148 7 72 -6 77 -8 72 -27 -7 -26 10 -46 39 -46 27 0 40 27 24 46
-14 18 -41 19 288 -11 404 -36 415 -37 410 -41 -2 -2 -110 -22 -241 -45 -171
-29 -241 -38 -249 -30 -6 6 -23 11 -37 11 -14 0 -32 6 -39 13 -10 10 -3 14 31
24 l43 13 -40 -5 c-22 -2 -62 -7 -90 -10 -38 -5 -47 -4 -35 5 13 9 12 10 -5 6
-30 -7 -96 -23 -127 -30 -18 -4 -28 -13 -28 -24 0 -12 3 -13 8 -4 5 6 44 16
88 21 106 12 122 12 130 -1 10 -15 -17 -29 -44 -23 -13 3 -29 2 -35 -3 -7 -5
-41 -14 -77 -21 -50 -8 -66 -8 -72 2 -6 9 -8 9 -8 0 0 -6 -15 -16 -33 -22 -34
-12 -80 -53 -89 -81 -3 -8 -2 -22 3 -31 7 -13 -9 -18 -109 -33 -64 -9 -127
-19 -138 -22 -13 -2 -24 2 -28 11 -8 22 -44 18 -57 -6 -10 -19 -17 -21 -68
-16 -174 17 -304 40 -336 58 -66 39 -265 41 -326 3 -5 -3 -9 -1 -9 3 0 5 44
32 98 61 82 43 92 52 66 52 -80 0 -184 -47 -284 -130 -32 -28 -64 -50 -70 -50
-5 0 -10 -6 -10 -13 0 -8 -10 -23 -23 -35 -13 -12 -30 -38 -37 -58 -12 -29
-15 -32 -21 -17 -4 12 4 33 26 63 48 66 157 242 145 235 -5 -3 -52 -62 -104
-130 -91 -120 -94 -125 -89 -166 4 -26 2 -40 -4 -36 -5 3 -10 1 -10 -6 0 -7
-16 -38 -36 -69 -122 -189 -160 -526 -139 -1216 7 -207 17 -529 23 -714 6
-185 9 -344 5 -353 -3 -9 -10 -13 -16 -10 -6 4 -10 69 -10 163 0 145 -15 427
-41 747 -17 221 -23 845 -9 980 13 133 44 267 83 363 14 34 24 62 21 62 -11 0
-57 -111 -79 -191 -54 -202 -60 -279 -60 -744 1 -289 6 -527 18 -725 23 -379
19 -904 -7 -961 -4 -10 -1 -23 8 -32 11 -10 16 -34 16 -70 0 -121 33 -403 85
-717 13 -82 -15 17 -60 207 -44 187 -47 203 -31 218 12 12 13 21 6 36 -6 10
-16 18 -22 16 -12 -2 -21 37 -48 201 -7 40 -14 71 -16 69 -11 -10 58 -403 107
-622 92 -403 208 -720 336 -920 105 -163 186 -255 270 -308 141 -89 363 -101
570 -32 79 27 133 57 114 63 -6 2 25 26 70 53 99 59 167 114 182 146 6 13 21
26 33 29 13 3 28 19 35 37 7 18 35 66 62 107 49 75 119 214 152 303 10 26 20
46 22 43 7 -7 -62 -177 -115 -281 -65 -128 -122 -210 -214 -303 -92 -93 -173
-152 -280 -201 -111 -52 -191 -71 -320 -78 -221 -12 -381 55 -539 225 -39 42
-62 63 -50 46 11 -18 57 -66 102 -108 89 -83 199 -145 297 -165 77 -16 241
-13 330 5 362 73 647 369 800 829 22 66 49 162 59 212 l18 93 38 0 c30 0 44
-7 68 -32 17 -20 27 -39 24 -49 -7 -22 9 -33 24 -16 8 10 3 22 -20 50 l-30 37
26 0 c14 0 125 -9 246 -21 122 -11 223 -18 226 -15 3 2 2 14 -2 25 -7 23 -9
23 -323 51 -175 15 -217 22 -234 37 -20 17 -21 17 -15 1 4 -10 2 -18 -3 -18
-5 0 -7 24 -5 53 2 28 9 192 14 364 14 416 27 527 72 615 19 36 81 88 106 88
24 0 13 -17 -18 -30 -33 -14 -73 -61 -83 -100 -4 -14 4 -5 17 20 25 48 87 92
122 88 17 -3 19 -10 16 -54 -1 -29 2 -55 8 -58 14 -9 41 34 41 67 l0 28 63 -5
62 -5 -55 10 c-85 15 -89 32 -5 22 107 -12 222 -8 309 11 94 21 231 89 300
149 53 45 132 72 170 57 19 -7 18 -9 -9 -16 -16 -4 -45 -8 -63 -8 -25 -1 -45
-13 -84 -49 -62 -58 -204 -130 -303 -152 -38 -9 -112 -20 -165 -25 l-95 -9
105 4 c185 8 358 75 490 191 27 23 122 44 204 44 27 0 62 7 79 15 40 18 252
56 272 49 8 -4 21 -2 28 4 7 6 131 32 277 58 244 43 269 46 322 35 32 -6 86
-13 120 -15 35 -2 50 -2 33 1 -16 2 -66 11 -110 20 -44 9 -89 15 -100 15 -11
-1 -132 -21 -270 -46 -137 -24 -252 -42 -255 -39 -10 10 36 34 58 30 12 -2 22
-1 22 3 0 12 136 30 171 23 23 -4 35 -2 43 9 7 9 56 23 126 36 107 19 120 20
185 6 39 -8 131 -17 207 -21 l136 -6 65 -137 c36 -76 71 -141 77 -145 6 -4
-13 42 -43 102 -78 157 -90 183 -84 189 10 10 29 -25 186 -338 87 -175 163
-324 170 -331 14 -18 4 -106 -16 -128 -7 -9 -11 -24 -7 -33 3 -9 1 -23 -5 -30
-8 -9 -8 -16 -2 -20 6 -4 8 -13 5 -20 -7 -19 47 -56 92 -63 26 -4 42 -1 64 15
l28 21 36 -52 c19 -29 74 -102 120 -164 52 -68 80 -114 73 -117 -7 -3 -6 -5 3
-5 9 -1 49 -35 90 -77 131 -133 235 -200 373 -243 133 -41 300 -37 451 9 61
19 83 18 56 -3 -16 -13 -40 -72 -40 -99 0 -9 6 -18 12 -20 10 -4 10 -10 0 -32
-11 -25 -10 -28 8 -33 11 -3 20 -9 20 -14 0 -5 9 -9 20 -9 11 0 20 -6 20 -14
0 -11 9 -13 36 -9 29 5 36 3 32 -8 -2 -8 -13 -18 -24 -23 -11 -5 -31 -25 -43
-44 -23 -34 -23 -35 -4 -54 63 -62 251 13 239 95 -4 29 -21 38 -74 39 -40 1
-49 4 -41 14 5 6 18 10 28 7 14 -3 21 3 29 27 7 17 16 29 21 26 9 -6 41 86 41
119 0 51 -65 118 -115 119 -19 1 -35 1 -35 2 0 0 24 25 53 55 153 157 248 356
278 575 13 97 7 342 -10 409 -6 22 -22 108 -37 190 -33 188 -92 428 -144 590
-23 69 -38 130 -35 135 3 6 15 10 25 10 30 0 50 11 50 27 0 10 6 13 16 9 14
-5 16 -1 11 31 -4 20 -2 42 4 49 7 9 3 19 -16 38 -14 14 -25 29 -25 34 0 4
-22 14 -48 21 -38 9 -54 9 -75 0 -15 -7 -29 -10 -30 -8 -2 2 -15 33 -29 69
-46 115 -144 319 -267 555 -147 280 -211 427 -211 484 0 73 -30 193 -71 279
-53 116 -148 246 -165 229 -6 -6 60 -133 81 -157 16 -17 70 -132 80 -170 l7
-25 -29 28 c-16 15 -40 53 -53 85 -30 72 -86 169 -119 205 -13 15 -21 27 -15
27 5 0 -2 9 -16 20 l-25 19 40 -5 c30 -4 36 -3 25 5 -8 6 -30 11 -47 11 -25 0
-44 11 -85 50 -100 96 -229 170 -386 223 -61 20 -154 77 -127 77 74 0 285 -57
285 -77 0 -11 3 -11 14 -1 8 7 11 16 8 19 -17 17 -206 79 -286 95 -80 16 -94
22 -139 62 -46 41 -136 92 -163 92 -6 0 -24 10 -40 22 -15 13 -25 17 -20 10
11 -18 -8 -15 -46 7 -36 22 -90 31 -128 24z m104 -19 c9 -3 16 -10 16 -15 0
-6 -8 -5 -19 1 -26 13 -52 14 -31 0 18 -12 4 -13 -41 -3 l-34 7 35 7 c51 9 57
10 74 3z m-125 -28 c-2 -2 -20 -6 -39 -10 -25 -4 -31 -3 -20 4 14 9 69 15 59
6z m169 -48 c15 -15 16 -41 0 -36 -6 2 -18 14 -26 26 -12 19 -12 22 0 22 8 0
19 -5 26 -12z m36 -14 c8 -21 8 -24 -3 -24 -5 0 -11 9 -14 20 -6 24 8 27 17 4z
m61 -1 c24 -4 98 -47 115 -67 11 -14 8 -16 -19 -16 -39 0 -74 17 -65 32 4 6
-1 8 -15 3 -16 -5 -23 -1 -30 17 -6 13 -10 17 -10 11 -2 -25 -21 -13 -21 13 0
18 4 23 13 17 6 -4 21 -9 32 -10z m-185 -3 c24 -15 7 -19 -20 -5 -15 8 -19 14
-10 14 8 1 22 -3 30 -9z m375 -140 c4 -6 -6 -10 -24 -10 -16 0 -33 5 -36 10
-4 6 6 10 24 10 16 0 33 -4 36 -10z m-927 -59 c-19 -31 -198 -41 -198 -11 0 5
21 12 48 15 26 4 52 8 57 10 6 2 31 4 58 4 44 1 46 0 35 -18z m-257 -23 c22
-6 39 -14 39 -18 0 -4 -46 -10 -102 -13 -57 -4 -121 -10 -142 -14 -30 -5 -37
-3 -31 6 6 10 3 11 -11 3 -11 -5 -50 -10 -89 -10 -58 -1 -65 1 -40 9 23 7 228
37 329 48 5 1 26 -4 47 -11z m-861 -129 c46 -1 7 -8 -280 -49 -324 -46 -300
-43 -300 -30 0 6 9 10 20 10 11 0 89 13 173 30 189 37 282 50 327 44 19 -2 46
-4 60 -5z m-595 -88 c-6 -5 -41 -12 -80 -15 l-70 -5 60 13 c75 17 102 19 90 7z
m-540 -79 c-3 -4 -10 0 -15 8 -6 8 -10 12 -11 8 -1 -5 -2 -11 -3 -15 -3 -15
-41 -53 -53 -53 -42 0 9 77 55 82 26 3 42 -15 27 -30z m4100 -441 c18 -36 29
-147 17 -186 l-9 -30 -13 25 c-9 17 -10 25 -1 28 17 6 14 62 -4 62 -11 0 -15
11 -15 39 0 21 -3 53 -7 71 -7 39 9 34 32 -9z m105 -320 c0 -4 50 -102 112
-217 179 -337 335 -672 324 -701 -8 -20 -24 -16 -32 10 -23 76 -152 343 -277
574 -199 369 -199 368 -191 401 4 15 9 31 11 35 5 8 53 -86 53 -102z m558
-1243 c107 -344 182 -750 182 -989 0 -206 -55 -424 -140 -553 -50 -75 -140
-167 -203 -205 -57 -35 -67 -19 -10 17 66 43 171 153 215 227 45 76 82 179
102 285 47 246 -18 710 -168 1192 -25 81 -46 150 -46 153 0 3 6 5 13 5 9 0 29
-50 55 -132z m-2340 -225 c2 -9 -10 -13 -40 -13 -23 0 -61 -5 -83 -10 -23 -5
-79 -16 -125 -24 -133 -24 -513 -96 -535 -103 -13 -3 -16 -2 -10 4 14 13 109
40 185 53 36 6 173 33 305 60 245 49 295 55 303 33z m225 -19 c119 -7 147 -17
80 -27 -36 -6 -195 6 -256 19 -40 8 -21 27 22 20 20 -3 89 -8 154 -12z m157
-14 c0 -5 -4 -10 -9 -10 -6 0 -13 5 -16 10 -3 6 1 10 9 10 9 0 16 -4 16 -10z
m176 -222 c47 -95 81 -168 76 -163 -11 11 -172 318 -172 328 0 22 19 -10 96
-165z m-1386 102 c0 -5 -15 -9 -32 -9 l-33 1 30 8 c17 4 31 8 33 9 1 0 2 -3 2
-9z m200 -9 c0 -6 -4 -12 -10 -16 -13 -8 -214 -44 -219 -39 -12 12 25 26 110
43 115 23 119 23 119 12z m-510 -51 c-8 -5 -21 -10 -27 -10 -7 0 -41 -23 -75
-51 -75 -60 -197 -122 -288 -146 -92 -24 -281 -22 -372 5 l-68 19 -52 -24
c-67 -31 -85 -47 -114 -105 -42 -82 -55 -196 -64 -563 -5 -187 -14 -355 -19
-374 -6 -19 -8 -38 -5 -43 10 -16 -7 -48 -27 -48 -20 0 -23 10 -13 59 6 27 9
30 23 19 13 -11 13 -8 -2 15 -10 15 -15 31 -12 36 2 5 9 145 15 310 17 531 50
648 200 715 l60 27 83 -20 c112 -27 198 -33 288 -22 127 17 247 67 348 144 68
54 91 67 116 67 17 0 17 -2 5 -10z m2572 -1288 c111 -76 238 -107 407 -99 64
3 131 10 148 17 49 18 64 5 18 -16 -59 -28 -325 -28 -405 0 -92 31 -168 76
-233 139 -34 32 -44 44 -22 25 23 -19 62 -49 87 -66z m-3672 -123 c0 -18 -2
-19 -15 -9 -8 7 -15 16 -15 21 0 5 7 9 15 9 9 0 15 -9 15 -21z"/>
<path d="M7068 7473 c7 -3 16 -2 19 1 4 3 -2 6 -13 5 -11 0 -14 -3 -6 -6z"/>
<path d="M5040 7458 c0 -9 11 -30 25 -45 19 -22 24 -24 25 -11 0 9 -11 30 -25
45 -19 22 -24 24 -25 11z"/>
<path d="M6465 7340 c-3 -6 1 -7 9 -4 18 7 21 14 7 14 -6 0 -13 -4 -16 -10z"/>
<path d="M8787 7287 c-12 -13 -32 -35 -44 -50 -13 -15 -30 -27 -38 -27 -8 0
-12 -6 -9 -15 3 -8 -1 -24 -10 -37 -24 -34 -22 -123 4 -145 11 -10 20 -25 20
-34 0 -9 7 -19 15 -22 8 -4 23 -24 35 -46 13 -27 25 -38 34 -35 34 13 121
-147 158 -289 12 -45 25 -84 29 -87 4 -3 10 -23 14 -45 14 -86 14 -87 30 -71
8 8 15 28 15 45 0 27 4 31 28 31 15 0 38 9 52 20 30 23 63 26 80 5 9 -11 17
-12 30 -5 25 13 30 13 30 -5 0 -16 30 -35 55 -35 14 0 15 8 10 58 -11 86 -49
231 -84 313 -17 40 -29 75 -26 77 2 2 20 -27 39 -64 19 -38 35 -66 36 -61 0
15 -61 141 -84 171 -13 17 -33 51 -46 76 -13 25 -42 71 -66 102 -24 31 -44 60
-44 65 0 4 -22 32 -49 61 -35 37 -56 52 -76 52 -15 0 -24 4 -20 10 8 13 -1 13
-26 -2 -17 -10 -23 -10 -26 0 -7 20 -42 14 -66 -11z"/>
<path d="M4648 7293 c7 -3 16 -2 19 1 4 3 -2 6 -13 5 -11 0 -14 -3 -6 -6z"/>
<path d="M10723 7201 c-88 -92 -133 -131 -152 -131 -11 0 -22 -4 -26 -10 -3
-5 -34 -7 -69 -6 -73 4 -138 -5 -118 -18 40 -24 170 -7 259 34 24 11 47 20 53
20 5 0 10 7 10 15 0 8 6 15 14 15 18 0 98 89 90 101 -10 17 -33 9 -61 -20z"/>
<path d="M8070 7113 c-24 -31 -25 -58 -4 -98 9 -16 18 -38 20 -49 5 -28 8 -29
64 -21 60 8 80 25 80 68 0 45 -57 123 -83 114 -7 -2 -22 0 -34 4 -18 6 -26 3
-43 -18z"/>
<path d="M3598 6859 c-24 -14 -23 -45 3 -62 46 -33 93 20 49 55 -25 21 -29 21
-52 7z"/>
<path d="M8541 6837 c-29 -29 9 -122 56 -133 46 -12 58 41 21 96 -26 38 -60
54 -77 37z"/>
<path d="M8212 6818 c-21 -21 -14 -57 13 -70 21 -10 27 -8 39 7 29 40 -19 96
-52 63z"/>
<path d="M2613 6736 c-59 -59 -73 -89 -17 -35 32 31 80 89 72 89 -2 0 -27 -25
-55 -54z"/>
<path d="M8186 6721 c-10 -16 5 -42 23 -39 21 4 21 42 -1 46 -9 2 -19 -1 -22
-7z"/>
<path d="M8894 6450 c-28 -15 -70 -31 -92 -35 -23 -4 -42 -11 -42 -16 0 -19
63 -40 108 -37 41 3 48 7 63 35 21 41 29 72 20 77 -3 2 -29 -8 -57 -24z"/>
<path d="M8465 6299 c-30 -57 -13 -152 24 -142 26 7 55 63 55 105 -2 70 -51
93 -79 37z"/>
<path d="M8702 6173 c-19 -35 -23 -108 -9 -127 14 -19 15 -19 30 5 22 35 29
81 18 112 -12 31 -26 35 -39 10z"/>
<path d="M11403 5972 c-55 -12 -63 -17 -78 -49 -13 -26 -16 -50 -12 -87 8 -67
60 -199 73 -186 7 7 17 4 29 -10 10 -11 26 -20 35 -20 9 0 25 -9 36 -21 l18
-20 8 22 c8 21 9 21 28 4 11 -10 20 -24 20 -32 0 -7 4 -13 8 -13 5 0 6 14 4
32 -4 25 -2 30 11 25 10 -4 17 2 21 17 3 13 19 38 35 55 23 24 26 33 15 42
-15 13 -7 42 10 32 6 -4 0 9 -14 28 -22 28 -25 41 -20 76 3 23 3 40 0 38 -4
-3 -28 9 -54 25 -83 53 -103 58 -173 42z"/>
<path d="M10226 5895 c-5 -13 -9 -15 -20 -6 -10 9 -17 6 -31 -15 -9 -14 -19
-23 -23 -20 -8 9 -72 -55 -72 -72 0 -7 -15 -34 -32 -59 -22 -31 -29 -47 -21
-50 8 -3 11 -14 7 -29 -3 -13 -2 -30 4 -37 6 -7 12 -33 14 -57 2 -38 7 -47 31
-58 25 -12 27 -18 22 -45 -5 -26 -4 -29 5 -14 13 21 36 22 44 2 3 -8 15 -15
26 -15 11 0 20 -7 20 -15 0 -13 3 -13 19 -3 15 9 25 9 43 1 13 -7 40 -13 60
-15 34 -4 38 -1 43 24 7 30 31 37 55 16 12 -11 12 -10 1 4 -19 25 -4 40 35 36
38 -4 41 -2 18 23 -19 22 -10 59 15 59 12 0 17 7 17 23 -1 18 4 22 29 20 28
-2 28 -2 7 7 -33 14 -37 36 -12 67 l21 27 -25 19 c-20 15 -26 27 -26 58 0 35
-4 42 -35 60 -19 12 -35 27 -35 35 0 7 -6 11 -14 8 -7 -3 -20 1 -27 9 -8 7
-20 12 -27 9 -7 -2 -27 1 -44 7 -25 9 -35 8 -49 -5 -16 -14 -18 -14 -27 1 -8
16 -9 16 -16 0z"/>
<path d="M8766 5701 c-19 -21 -11 -31 20 -27 11 2 19 11 19 21 0 26 -18 29
-39 6z"/>
<path d="M9670 4965 c0 -9 5 -15 11 -13 6 2 11 8 11 13 0 5 -5 11 -11 13 -6 2
-11 -4 -11 -13z"/>
<path d="M9769 4921 c-20 -16 -22 -23 -14 -47 9 -24 17 -30 47 -32 28 -2 40 2
52 20 20 28 20 42 0 62 -21 21 -57 20 -85 -3z"/>
<path d="M11162 4588 c-18 -22 11 -76 39 -74 20 1 24 6 22 30 -3 48 -37 72
-61 44z"/>
<path d="M12694 4485 c-17 -42 -18 -69 -3 -98 23 -43 57 -49 90 -16 17 17 20
29 16 61 -12 88 -74 121 -103 53z"/>
<path d="M6227 4463 c-24 -23 9 -31 39 -8 18 14 18 14 -7 15 -14 0 -29 -3 -32
-7z"/>
<path d="M6348 4412 c-40 -18 -49 -32 -22 -32 19 0 82 29 90 41 8 14 -27 9
-68 -9z"/>
<path d="M6206 4375 c4 -8 10 -12 15 -9 14 8 10 24 -6 24 -9 0 -12 -6 -9 -15z"/>
<path d="M1428 4263 c-27 -29 -38 -70 -38 -138 0 -69 4 -77 36 -65 38 15 61
163 31 204 -12 16 -13 16 -29 -1z"/>
<path d="M6335 4210 c-22 -10 -35 -19 -30 -19 19 -2 84 20 90 29 9 15 -15 11
-60 -10z"/>
<path d="M6450 4172 c0 -10 6 -27 14 -37 13 -18 14 -18 25 4 10 17 10 26 0 37
-16 20 -39 18 -39 -4z"/>
<path d="M10767 4132 c-7 -9 -11 -46 -10 -93 2 -66 6 -85 25 -109 13 -16 31
-29 41 -29 9 -1 17 -5 17 -11 0 -28 18 -4 33 43 22 71 23 106 4 144 -9 18 -17
39 -17 46 0 21 -77 28 -93 9z"/>
<path d="M6904 4114 c3 -9 6 -18 6 -20 0 -2 7 -4 15 -4 18 0 19 12 3 28 -17
17 -31 15 -24 -4z"/>
<path d="M4411 3994 c0 -11 3 -14 6 -6 3 7 2 16 -1 19 -3 4 -6 -2 -5 -13z"/>
<path d="M6970 3973 c0 -5 5 -15 10 -23 7 -11 12 -12 21 -3 6 6 8 16 5 22 -8
12 -36 15 -36 4z"/>
<path d="M4402 3945 c0 -16 2 -22 5 -12 2 9 2 23 0 30 -3 6 -5 -1 -5 -18z"/>
<path d="M9347 3952 c-15 -9 -37 -37 -48 -62 -11 -25 -26 -56 -33 -70 -17 -34
-10 -57 19 -64 13 -3 36 -17 52 -29 32 -27 70 -40 79 -26 3 5 10 9 15 9 6 0 7
-5 3 -11 -3 -6 6 -3 20 6 15 10 25 23 23 29 -3 7 1 20 9 31 8 10 14 29 14 41
0 13 5 26 10 29 8 5 7 11 0 20 -7 8 -9 23 -5 35 5 15 1 22 -20 30 -14 5 -24
14 -21 19 7 10 -38 31 -67 31 -12 0 -35 -8 -50 -18z"/>
<path d="M6620 3926 c0 -8 5 -18 10 -21 6 -3 10 1 10 9 0 8 -4 18 -10 21 -5 3
-10 -1 -10 -9z"/>
<path d="M2231 3896 c-10 -12 -8 -17 7 -25 25 -13 47 6 31 26 -15 17 -24 16
-38 -1z"/>
<path d="M4393 3860 c0 -25 2 -35 4 -22 2 12 2 32 0 45 -2 12 -4 2 -4 -23z"/>
<path d="M6954 3855 c-10 -24 12 -64 40 -75 14 -5 32 -23 41 -40 16 -32 35
-40 35 -16 0 8 -9 21 -20 29 -12 8 -20 18 -19 23 4 25 -3 53 -18 70 -23 25
-52 29 -59 9z"/>
<path d="M2323 3824 c-3 -8 -1 -20 6 -27 8 -8 11 -4 11 16 0 30 -7 35 -17 11z"/>
<path d="M1031 3795 c-27 -36 -34 -76 -26 -152 5 -47 3 -68 -7 -80 -11 -15
-10 -16 10 -11 15 4 25 2 29 -8 7 -20 20 -9 59 53 28 43 36 67 41 122 5 63 4
69 -18 85 -34 23 -64 20 -88 -9z"/>
<path d="M5965 3782 c-4 -17 -11 -23 -24 -19 -13 3 -17 0 -14 -12 2 -10 -8
-24 -26 -36 -23 -15 -27 -22 -16 -27 7 -5 16 -26 20 -48 7 -42 57 -119 78
-121 6 -1 27 0 45 1 50 3 78 -22 103 -90 12 -34 31 -68 43 -75 38 -28 86 -13
86 26 0 10 11 19 29 22 32 7 47 40 25 58 -9 7 -14 31 -14 62 l0 50 -24 -22
c-14 -13 -30 -36 -36 -52 -14 -32 -31 -37 -51 -13 -12 14 -14 14 -26 -2 -20
-27 -25 3 -9 49 9 27 10 52 5 80 -5 23 -12 61 -15 84 -6 38 -8 41 -26 30 -16
-10 -22 -9 -34 7 -8 11 -14 28 -14 39 0 18 -2 17 -19 -4 l-18 -23 -31 30 -31
31 -6 -25z"/>
<path d="M6930 3776 c0 -15 18 -31 26 -23 7 7 -7 37 -17 37 -5 0 -9 -6 -9 -14z"/>
<path d="M6590 3759 c0 -11 11 -37 25 -57 l25 -37 0 32 c0 40 -19 83 -37 83
-7 0 -13 -9 -13 -21z"/>
<path d="M4384 3535 c0 -132 2 -185 3 -117 2 68 2 176 0 240 -1 64 -3 9 -3
-123z"/>
<path d="M2147 3738 c-7 -27 2 -68 19 -85 20 -21 31 28 19 85 -7 28 -31 29
-38 0z"/>
<path d="M2310 3720 c0 -18 4 -29 10 -25 6 3 10 15 10 25 0 10 -4 22 -10 25
-6 4 -10 -7 -10 -25z"/>
<path d="M5166 3678 c-8 -18 -24 -54 -35 -80 -17 -37 -19 -52 -11 -68 16 -30
31 -25 88 33 61 62 70 103 27 131 -36 24 -53 20 -69 -16z"/>
<path d="M4964 3692 c-6 -4 -14 -17 -18 -29 -5 -16 -2 -25 13 -32 57 -31 108
11 65 53 -16 17 -42 20 -60 8z"/>
<path d="M6626 3613 c-46 -12 -55 -18 -42 -25 14 -8 15 -13 5 -24 -9 -11 -8
-14 9 -14 11 0 27 -7 36 -15 19 -19 33 -19 44 2 11 19 42 11 42 -12 0 -19 1
-19 67 2 60 19 80 51 49 81 -22 23 -135 25 -210 5z"/>
<path d="M192 3537 c-12 -13 -22 -26 -22 -30 0 -4 22 -7 50 -7 39 0 52 4 60
20 8 15 6 21 -9 30 -31 16 -56 12 -79 -13z"/>
<path d="M6440 3541 c0 -20 13 -35 23 -25 7 8 -4 44 -14 44 -5 0 -9 -9 -9 -19z"/>
<path d="M9215 3520 c-23 -25 -25 -87 -4 -101 7 -5 26 -9 40 -9 33 0 61 54 50
97 -10 37 -58 44 -86 13z"/>
<path d="M2069 3489 c-28 -28 -19 -43 28 -47 39 -3 41 -2 36 20 -7 27 -22 48
-34 48 -5 0 -18 -9 -30 -21z"/>
<path d="M7131 3481 c-30 -19 22 -88 58 -76 28 9 26 30 -4 60 -26 27 -33 29
-54 16z"/>
<path d="M2250 3446 c0 -37 14 -56 24 -31 5 15 -9 65 -19 65 -3 0 -5 -15 -5
-34z"/>
<path d="M9116 3445 c-21 -21 -21 -54 0 -62 26 -10 49 11 49 43 0 34 -24 43
-49 19z"/>
<path d="M4589 3350 c-32 -32 -32 -41 -2 -108 12 -26 18 -30 29 -21 13 11 18
5 15 -15 -1 -4 11 2 27 15 16 14 34 43 42 67 12 40 11 45 -10 68 -31 32 -65
30 -101 -6z"/>
<path d="M2255 3360 c-4 -6 -3 -16 3 -22 6 -6 12 -6 17 2 4 6 3 16 -3 22 -6 6
-12 6 -17 -2z"/>
<path d="M5653 3205 c-111 -27 -207 -94 -217 -151 l-5 -31 75 3 c67 3 82 8
154 50 90 52 140 96 140 125 0 16 -7 19 -47 18 -27 -1 -71 -7 -100 -14z"/>
<path d="M9435 3210 c-3 -5 -1 -10 4 -10 6 0 11 5 11 10 0 6 -2 10 -4 10 -3 0
-8 -4 -11 -10z"/>
<path d="M9560 3174 c-17 -15 -39 -45 -50 -67 -40 -82 -35 -192 8 -180 27 7
76 54 91 88 7 17 17 38 22 47 12 24 11 95 -1 119 -14 26 -33 24 -70 -7z"/>
<path d="M1900 3146 c0 -8 5 -18 10 -21 6 -3 10 1 10 9 0 8 -4 18 -10 21 -5 3
-10 -1 -10 -9z"/>
<path d="M2210 3140 c0 -11 5 -20 10 -20 6 0 10 9 10 20 0 11 -4 20 -10 20 -5
0 -10 -9 -10 -20z"/>
<path d="M6311 3129 c-25 -11 -83 -48 -130 -83 -47 -35 -103 -74 -124 -86 -21
-13 -36 -28 -33 -35 2 -7 -6 -17 -19 -23 -14 -6 -24 -22 -27 -40 l-4 -29 65 5
c37 2 74 8 84 13 9 6 21 8 25 5 5 -3 30 13 56 34 27 22 54 40 61 40 17 0 112
114 134 158 15 32 15 35 -4 48 -24 18 -31 18 -84 -7z"/>
<path d="M2371 3100 c0 -8 4 -24 9 -35 5 -13 9 -14 9 -5 0 8 -4 24 -9 35 -5
13 -9 14 -9 5z"/>
<path d="M2401 3000 c0 -8 4 -24 9 -35 5 -13 9 -14 9 -5 0 8 -4 24 -9 35 -5
13 -9 14 -9 5z"/>
<path d="M2141 2974 c0 -11 3 -14 6 -6 3 7 2 16 -1 19 -3 4 -6 -2 -5 -13z"/>
<path d="M2422 2930 c0 -8 6 -31 13 -50 7 -19 13 -28 13 -20 0 8 -6 31 -13 50
-7 19 -13 28 -13 20z"/>
<path d="M7379 2917 c-9 -7 -14 -18 -12 -24 3 -7 -1 -13 -8 -13 -8 0 -7 -6 4
-18 10 -10 17 -24 17 -30 0 -6 20 -25 45 -42 59 -40 138 -51 155 -21 36 68
-137 196 -201 148z"/>
<path d="M2452 2830 c0 -8 8 -37 18 -65 10 -27 18 -43 18 -35 0 8 -8 38 -18
65 -10 28 -18 43 -18 35z"/>
<path d="M8430 2770 c-13 -9 -13 -11 -1 -19 17 -11 43 -3 38 12 -5 15 -20 18
-37 7z"/>
<path d="M2207 2764 c-8 -9 11 -44 24 -44 6 0 9 10 7 22 -3 22 -19 34 -31 22z"/>
<path d="M2490 2701 c0 -15 77 -215 112 -292 42 -90 108 -205 138 -239 26 -30
18 -14 -29 60 -48 76 -142 277 -181 388 -30 85 -40 105 -40 83z"/>
<path d="M6410 2702 c0 -5 -18 -17 -40 -27 -46 -21 -45 -19 -25 -74 8 -23 13
-47 10 -54 -5 -19 121 -118 159 -124 43 -7 97 11 125 41 20 22 21 27 10 72
-21 84 -54 132 -109 152 -40 15 -130 25 -130 14z"/>
<path d="M2103 2664 c-7 -19 23 -52 36 -39 11 12 -4 55 -19 55 -6 0 -13 -7
-17 -16z"/>
<path d="M2310 2655 c13 -14 26 -25 28 -25 3 0 -5 11 -18 25 -13 14 -26 25
-28 25 -3 0 5 -11 18 -25z"/>
<path d="M1863 2640 c4 -14 7 -28 7 -32 0 -5 6 -8 14 -8 18 0 10 34 -12 52
-13 11 -15 10 -9 -12z"/>
<path d="M2473 2596 c15 -14 33 -26 40 -26 13 1 -16 26 -48 41 -13 7 -10 1 8
-15z"/>
<path d="M10590 2611 c-56 -8 -85 -26 -190 -116 -51 -44 -90 -87 -105 -116
-24 -47 -70 -93 -112 -112 -13 -6 -23 -18 -23 -28 0 -9 -21 -43 -47 -76 -25
-32 -51 -64 -57 -71 -7 -9 -6 -16 3 -21 8 -6 -31 -50 -126 -140 -76 -72 -129
-129 -118 -125 15 5 11 -3 -16 -32 -19 -21 -57 -65 -84 -98 -26 -32 -70 -74
-97 -94 -26 -20 -48 -40 -48 -45 0 -5 16 -7 35 -4 40 7 41 5 18 -29 -19 -29
-82 -75 -168 -121 -68 -37 -68 -38 -1 -18 57 17 67 13 40 -16 -19 -21 -19 -21
9 -8 71 32 48 -48 -32 -108 -52 -40 -47 -41 22 -6 63 31 138 53 190 53 39 0
44 -8 27 -41 -18 -32 9 -23 80 26 121 84 153 104 160 100 4 -2 25 11 46 29 50
42 104 70 115 59 5 -5 -2 -32 -16 -61 -13 -28 -23 -52 -21 -52 2 0 25 34 52
75 35 53 55 75 69 75 15 0 59 50 156 178 75 97 154 204 176 237 45 68 97 174
94 192 -1 7 9 32 22 55 33 59 40 93 25 134 -10 29 -9 44 9 104 17 59 18 70 6
70 -12 0 -14 9 -11 37 5 40 -13 116 -28 119 -5 0 -29 -2 -54 -5z"/>
<path d="M4431 2574 c-23 -29 -28 -83 -10 -101 19 -19 66 13 80 54 11 34 10
38 -11 55 -29 24 -35 23 -59 -8z"/>
<path d="M4750 2584 c0 -8 5 -12 10 -9 6 3 10 10 10 16 0 5 -4 9 -10 9 -5 0
-10 -7 -10 -16z"/>
<path d="M7255 2575 c66 -55 286 -117 455 -129 l75 -6 -70 14 c-66 13 -346 99
-428 131 -54 22 -66 18 -32 -10z"/>
<path d="M7910 2590 c-9 -5 -6 -12 11 -24 29 -20 59 -21 59 -2 0 17 -52 37
-70 26z"/>
<path d="M4572 2483 c-5 -10 -7 -24 -5 -31 7 -18 33 5 33 29 0 24 -16 25 -28
2z"/>
<path d="M8118 2403 c6 -2 18 -2 25 0 6 3 1 5 -13 5 -14 0 -19 -2 -12 -5z"/>
<path d="M5131 2347 c-16 -20 -6 -56 10 -40 6 6 9 21 7 33 -3 21 -4 22 -17 7z"/>
<path d="M8745 2324 c-63 -22 -82 -34 -93 -59 -10 -21 -8 -25 15 -32 63 -21
193 35 193 84 0 20 -5 23 -37 22 -21 0 -56 -7 -78 -15z"/>
<path d="M6520 2242 c-41 -21 -142 -80 -225 -131 -82 -51 -169 -103 -193 -115
-44 -21 -44 -21 -16 -26 28 -5 28 -5 -18 -30 -26 -13 -46 -26 -44 -27 2 -2 56
15 121 37 192 67 327 143 414 234 44 48 67 96 44 96 -5 0 -42 -18 -83 -38z"/>
<path d="M4425 2198 c-63 -36 -117 -197 -78 -230 25 -20 55 -15 87 17 47 46
69 101 61 155 -10 68 -28 82 -70 58z"/>
<path d="M2530 2050 c0 -5 5 -10 10 -10 6 0 10 5 10 10 0 6 -4 10 -10 10 -5 0
-10 -4 -10 -10z"/>
<path d="M7840 2015 c7 -8 28 -15 49 -15 34 1 35 2 17 15 -11 8 -33 15 -49 15
-25 0 -28 -2 -17 -15z"/>
<path d="M2640 2005 c0 -15 34 -55 46 -55 20 0 17 14 -9 38 -23 21 -37 28 -37
17z"/>
<path d="M2943 1702 c-38 -6 -27 -35 20 -54 64 -27 98 -30 141 -15 l39 13 -54
24 c-60 26 -112 37 -146 32z"/>
<path d="M3667 1680 c-40 -7 -84 -41 -84 -65 0 -37 120 -3 133 39 9 26 -6 34
-49 26z"/>
<path d="M3156 1641 c-3 -5 9 -11 27 -13 40 -4 67 1 67 13 0 12 -87 12 -94 0z"/>
<path d="M9390 1300 c-8 -5 -10 -10 -5 -10 6 0 17 5 25 10 8 5 11 10 5 10 -5
0 -17 -5 -25 -10z"/>
<path d="M3280 585 c-36 -8 -80 -14 -97 -14 -18 -1 -33 -6 -33 -11 0 -6 15 -8
40 -4 25 4 45 2 55 -6 23 -19 224 -10 258 13 15 10 25 22 22 27 -9 14 -169 10
-245 -5z"/>
<path d="M6220 10 c0 -5 5 -10 11 -10 5 0 7 5 4 10 -3 6 -8 10 -11 10 -2 0 -4
-4 -4 -10z"/>
</g>
</svg>
